<svg aria-hidden="true" style="position: absolute; width: 0; height: 0; overflow: hidden;" version="1.1" xmlns="http://www.w3.org/2000/svg" xmlns:xlink="http://www.w3.org/1999/xlink">
<defs>
<symbol id="icon-basket" viewBox="0 0 32 32">
<path d="M31.331 13.333c0.435 0 0.755 0.373 0.649 0.76l-4.104 15.093c-0.236 0.869-1.088 1.48-2.067 1.48h-19.619c-0.977 0-1.828-0.611-2.067-1.48l-4.104-15.093c-0.105-0.387 0.213-0.76 0.649-0.76h30.661zM27.182 26.665h-22.364l0.604 2.224c0.050 0.163 0.153 0.305 0.291 0.405s0.306 0.151 0.477 0.147h19.621c0.361 0 0.679-0.227 0.767-0.552l0.604-2.224zM28.268 22.665h-24.539l0.725 2.667h23.089l0.724-2.667zM29.356 18.665h-26.715l0.725 2.667h25.264l0.725-2.667zM30.475 14.559h-28.949l0.755 2.775h27.439l0.756-2.773v-0.001zM18.426 2.285l7.483 6.933c0.064 0.060 0.116 0.131 0.153 0.211s0.057 0.166 0.060 0.253-0.011 0.175-0.041 0.257c-0.030 0.082-0.077 0.158-0.136 0.222s-0.131 0.116-0.211 0.153-0.166 0.057-0.253 0.060c-0.088 0.003-0.175-0.011-0.257-0.041s-0.157-0.077-0.222-0.136l-7.483-6.933c-0.413-0.383-0.955-0.596-1.519-0.596s-1.106 0.213-1.519 0.596l-7.483 6.933c-0.064 0.060-0.14 0.106-0.222 0.136s-0.17 0.044-0.257 0.041c-0.088-0.003-0.174-0.024-0.253-0.060s-0.151-0.088-0.211-0.153c-0.060-0.064-0.106-0.14-0.136-0.222s-0.044-0.169-0.041-0.257c0.003-0.088 0.024-0.174 0.060-0.253s0.088-0.151 0.153-0.211l7.483-6.933c0.659-0.612 1.526-0.952 2.425-0.952s1.766 0.34 2.425 0.952z"></path>
</symbol>
<symbol id="icon-community" viewBox="0 0 32 32">
<path d="M4.667 5.219h-0.667v-0.667c0-0.177-0.070-0.346-0.195-0.471s-0.295-0.195-0.471-0.195c-0.177 0-0.346 0.070-0.471 0.195s-0.195 0.295-0.195 0.471v0.667h-0.667c-0.088 0-0.174 0.017-0.255 0.051s-0.154 0.083-0.216 0.145c-0.062 0.062-0.111 0.135-0.145 0.216s-0.051 0.168-0.051 0.255c0 0.088 0.017 0.174 0.051 0.255s0.083 0.154 0.145 0.216c0.062 0.062 0.135 0.111 0.216 0.145s0.168 0.051 0.255 0.051h0.667v0.667c0 0.177 0.070 0.346 0.195 0.471s0.295 0.195 0.471 0.195c0.177 0 0.346-0.070 0.471-0.195s0.195-0.295 0.195-0.471v-0.667h0.667c0.177 0 0.346-0.070 0.471-0.195s0.195-0.295 0.195-0.471c0-0.177-0.070-0.346-0.195-0.471s-0.295-0.195-0.471-0.195zM12.276 7.219l0.472-0.472c0.125-0.125 0.195-0.295 0.195-0.472s-0.071-0.347-0.196-0.472c-0.125-0.125-0.295-0.195-0.472-0.195s-0.347 0.071-0.472 0.196l-0.471 0.472-0.472-0.472c-0.126-0.121-0.294-0.189-0.469-0.187s-0.342 0.072-0.466 0.195c-0.124 0.124-0.194 0.291-0.195 0.466s0.066 0.343 0.187 0.469l0.472 0.472-0.472 0.472c-0.121 0.126-0.189 0.294-0.187 0.469s0.072 0.342 0.195 0.466c0.124 0.124 0.291 0.194 0.466 0.195s0.343-0.066 0.469-0.187l0.472-0.473 0.471 0.472c0.062 0.062 0.135 0.111 0.216 0.145s0.168 0.051 0.255 0.051c0.088 0 0.174-0.017 0.255-0.051s0.155-0.083 0.216-0.144c0.062-0.062 0.111-0.135 0.145-0.216s0.051-0.168 0.051-0.255c0-0.088-0.017-0.174-0.051-0.255s-0.083-0.155-0.144-0.216l-0.472-0.471zM7.424 3.885c-0.178 0-0.349-0.069-0.477-0.194s-0.2-0.294-0.203-0.473c0-0.368 0.285-0.667 0.653-0.667h0.027c0.177 0 0.346 0.070 0.471 0.195s0.195 0.295 0.195 0.471c0 0.177-0.070 0.346-0.195 0.471s-0.295 0.195-0.471 0.195zM28.757 10.552c-0.178 0-0.349-0.069-0.477-0.194s-0.2-0.294-0.203-0.473c0-0.368 0.285-0.667 0.653-0.667h0.027c0.177 0 0.346 0.070 0.471 0.195s0.195 0.295 0.195 0.471-0.070 0.346-0.195 0.471c-0.125 0.125-0.295 0.195-0.471 0.195zM5.333 29.819c0-0.227 0.017-0.445 0.033-0.667h-3.983c0.367-2.352 2.685-3.593 5.269-3.911 0.319-0.508 0.687-0.984 1.1-1.415-3.899 0.075-7.753 1.933-7.753 5.992 0 0.177 0.070 0.346 0.195 0.471s0.295 0.195 0.471 0.195h4.789c-0.080-0.213-0.12-0.44-0.123-0.667zM25.333 15.819c-1.471 0-2.667 1.196-2.667 2.667s1.196 2.667 2.667 2.667c1.471 0 2.667-1.196 2.667-2.667s-1.196-2.667-2.667-2.667zM25.333 22.485c-2.205 0-4-1.795-4-4s1.795-4 4-4c2.205 0 4 1.795 4 4s-1.795 4-4 4zM6.667 15.819c-1.471 0-2.667 1.196-2.667 2.667s1.196 2.667 2.667 2.667c1.471 0 2.667-1.196 2.667-2.667s-1.196-2.667-2.667-2.667zM6.667 22.485c-2.205 0-4-1.795-4-4s1.795-4 4-4c2.205 0 4 1.795 4 4s-1.795 4-4 4zM24.247 23.827c0.413 0.431 0.781 0.907 1.1 1.416 2.585 0.316 4.901 1.557 5.267 3.909h-3.98c0.017 0.221 0.033 0.44 0.033 0.667 0 0.235-0.048 0.457-0.121 0.667h4.787c0.369 0 0.667-0.297 0.667-0.667 0-4.059-3.853-5.917-7.752-5.992zM8.036 29.333h15.837c-0.333-2.996-2.88-5.333-5.964-5.333h-3.909c-1.475 0.002-2.899 0.546-3.999 1.53s-1.799 2.337-1.965 3.803zM24.576 30.667h-17.243c-0.177 0-0.346-0.070-0.471-0.195s-0.195-0.295-0.195-0.471c0-4.044 3.289-7.333 7.333-7.333h3.909c4.044 0 7.333 3.289 7.333 7.333 0 0.177-0.070 0.346-0.195 0.471s-0.295 0.195-0.471 0.195zM15.911 13.333c-1.471 0-2.667 1.196-2.667 2.667s1.196 2.667 2.667 2.667c1.471 0 2.667-1.196 2.667-2.667s-1.196-2.667-2.667-2.667zM15.911 20c-2.205 0-4-1.795-4-4s1.795-4 4-4c2.205 0 4 1.795 4 4s-1.795 4-4 4zM21.499 2.667c-0.411 0-0.78 0.157-0.967 0.344-0.126 0.106-0.229 0.237-0.301 0.385s-0.112 0.31-0.117 0.475c-0.028 0.46 0.139 0.952 0.413 1.227 0.607 0.749 1.781 1.795 2.776 2.607 0.633-0.517 2.056-1.712 2.727-2.552 0.161-0.17 0.285-0.372 0.365-0.592s0.114-0.454 0.101-0.688c-0.012-0.205-0.075-0.583-0.361-0.811-0.021-0.016-0.040-0.033-0.059-0.052-0.224-0.225-0.72-0.411-1.233-0.319-0.203 0.030-0.395 0.111-0.558 0.235s-0.293 0.287-0.377 0.474c-0.219 0.468-0.988 0.468-1.207 0-0.083-0.187-0.213-0.35-0.376-0.474s-0.355-0.205-0.557-0.235c-0.089-0.016-0.179-0.025-0.269-0.024zM23.305 9.155c-0.211 0-0.415-0.072-0.579-0.204-0.535-0.427-2.337-1.901-3.191-2.965-0.495-0.491-0.801-1.351-0.752-2.192 0.043-0.737 0.349-1.369 0.863-1.776 0.517-0.525 1.463-0.796 2.351-0.64 0.508 0.088 0.952 0.304 1.307 0.628 0.367-0.331 0.822-0.549 1.309-0.629 0.88-0.152 1.803 0.108 2.379 0.667 0.497 0.407 0.793 1.028 0.835 1.752 0.048 0.841-0.259 1.701-0.803 2.245-0.809 1.016-2.608 2.485-3.139 2.909-0.164 0.132-0.369 0.205-0.58 0.205z"></path>
</symbol>
<symbol id="icon-favorite" viewBox="0 0 32 32">
<path d="M29.317 3.685c3.6 2.933 3.467 9.6 0.133 12.933-2.933 3.733-9.867 10.8-12.4 12.8-0.667 0.533-1.467 0.533-2.133 0-2.4-2-9.333-9.067-12.267-12.8-3.467-3.467-3.6-10.133 0-12.933 3.467-3.467 10.267-3.2 13.333 1.467 3.067-4.533 9.733-4.933 13.333-1.467zM28.384 4.751c-3.2-3.2-9.6-2.667-11.867 2-0.133 0.4-0.533 0.533-0.933 0.267-0.133 0-0.267-0.133-0.267-0.267-2.133-4.667-8.667-5.333-11.867-2-2.933 2.267-2.8 8.133 0.133 11.067 2.933 3.6 9.733 10.667 12.133 12.533 0.133 0.133 0.267 0.133 0.4 0 2.4-1.867 9.2-8.933 12.133-12.667 3.067-2.8 3.2-8.667 0.133-10.933z"></path>
</symbol>
<symbol id="icon-login" viewBox="0 0 32 32">
<path d="M16.516 0.008c8.43 0.286 15.226 7.078 15.476 15.462 0.138 4.475-1.528 8.681-4.689 11.842-3.033 3.035-7.032 4.688-11.305 4.688-0.171 0-0.34-0.002-0.512-0.007-8.426-0.285-15.225-7.077-15.476-15.462-0.154-4.454 1.496-8.65 4.645-11.813 3.164-3.175 7.367-4.85 11.86-4.71h0.001zM16.485 1.008c-4.213-0.132-8.15 1.432-11.121 4.416-2.954 2.966-4.499 6.895-4.355 11.076 0.235 7.857 6.61 14.225 14.505 14.493 0.155 0.004 0.313 0.006 0.484 0.006 4.012 0 7.754-1.55 10.598-4.395 2.966-2.966 4.526-6.906 4.397-11.105-0.231-7.75-6.434-14.050-14.187-14.478l-0.321-0.014v0.001z"></path>
<path d="M21.146 6.703c0.035 0 0.035 0.035 0.070 0.035 0.493 2.357 1.76 5.383 4.962 6.615 0.457 1.9 0.422 4.010-0.247 6.157-0.88 2.64-3.764 5.56-6.403 6.44-6.018 2.040-11.648-1.163-13.582-6.23 7.284-1.653 6.72-10.168 6.72-10.168l0.090 0.337c0.187 0.773 0.57 2.758 0.157 4.765 6.087-0.106 7.776-4.96 8.233-7.951zM21.285 10.056l-0.075 0.186c-1.366 3.234-4.010 5.338-8.28 5.412-0.116 0.002-0.23-0.015-0.34-0.052l-0.089-0.037-0.076 0.163c-1.030 2.139-2.667 3.744-4.985 4.595l-0.115 0.039 0.118 0.223c2.164 3.96 6.804 5.96 11.493 4.505l0.276-0.090c2.329-0.776 4.987-3.454 5.765-5.787 0.515-1.654 0.633-3.322 0.374-4.903l-0.044-0.241-0.074-0.033c-1.708-0.807-2.96-2.104-3.826-3.742l-0.122-0.238z"></path>
<path d="M16.678 21.938c0.178 0.005 0.351 0.067 0.492 0.176 0.549 0.42 1.186 0.69 1.857 0.625l0.184-0.027c0.070 0 0.14-0.035 0.211-0.035l0.035 0.070-1.337 0.774c-0.422 0.247-0.844 0.458-1.337 0.528h-0.035c-1.231 0.246-2.498-0.105-3.483-0.81l-0.704-0.492 0.035-0.070c0.070 0 0.141 0.035 0.211 0.035 0.74 0.106 1.443-0.14 2.041-0.598 0.141-0.11 0.314-0.171 0.493-0.176 0.281 0 0.492 0.14 0.668 0.317 0.141-0.211 0.387-0.317 0.669-0.317zM22.8 14.795l0.091 0.175c0.233 0.424 0.938 1.45 2.759 1.48l0.035 0.034c-0.4 0.2-1.882 0.147-3.085-0.432l-0.187-0.096 0.061 0.23c0.192 0.644 0.569 1.193 1.733 1.319v0.035c-0.433 0.1-1.877-0.242-2.955-1.056l-0.176-0.14c0.14 0.774 0.493 1.583 1.407 1.9v0.035c-0.492 0-1.864-0.704-2.709-1.865-0.035 0.739 0.106 1.548 0.845 2.076v0.035c-2.534-1.513-2.71-3.202-2.886-3.554l0.211-0.105c1.020 1.689 4.258 1.195 4.856-0.071z"></path>
</symbol>
<symbol id="icon-search" viewBox="0 0 32 32">
<path stroke-linejoin="round" stroke-linecap="round" stroke-miterlimit="4" stroke-width="3.5854" d="M30.118 29.176l-8.683-8.157M13.242 23.817c-1.483 0.023-2.956-0.232-4.333-0.749s-2.631-1.287-3.688-2.264c-1.057-0.977-1.897-2.142-2.47-3.427s-0.868-2.664-0.868-4.057c0-1.393 0.295-2.772 0.868-4.057s1.413-2.45 2.47-3.427c1.057-0.977 2.311-1.746 3.688-2.264s2.85-0.772 4.333-0.749c2.941 0.032 5.749 1.152 7.817 3.117s3.227 4.617 3.227 7.379c0 2.763-1.16 5.414-3.227 7.379s-4.876 3.085-7.817 3.117v-0.001z"></path>
</symbol>
<symbol id="icon-shops" viewBox="0 0 32 32">
<path d="M2 30c-0.177 0-0.346-0.070-0.471-0.195s-0.195-0.295-0.195-0.471v-26.667c0-0.177 0.070-0.346 0.195-0.471s0.295-0.195 0.471-0.195h28c0.177 0 0.346 0.070 0.471 0.195s0.195 0.295 0.195 0.471v26.667c0 0.177-0.070 0.346-0.195 0.471s-0.295 0.195-0.471 0.195h-28zM29.333 28.667v-25.333h-26.667v25.333h26.667z"></path>
<path d="M0 28.667h32v1.333h-32v-1.333z"></path>
<path d="M10 30c-0.177 0-0.346-0.070-0.471-0.195s-0.195-0.295-0.195-0.471v-13.333c0-0.177 0.070-0.346 0.195-0.471s0.295-0.195 0.471-0.195h12c0.177 0 0.346 0.070 0.471 0.195s0.195 0.295 0.195 0.471v13.333c0 0.177-0.070 0.346-0.195 0.471s-0.295 0.195-0.471 0.195h-12zM21.333 28.667v-12h-10.667v12h10.667z"></path>
<path d="M15.333 15.333h1.333v14.667h-1.333v-14.667zM1.333 6v-1.333h29.333v1.333h-29.333zM1.333 8.667v-1.333h29.333v1.333h-29.333zM1.333 11.333v-1.333h29.333v1.333h-29.333z"></path>
</symbol>
</defs>
</svg>
